<svg xmlns="http://www.w3.org/2000/svg" viewBox="0 0 640 360">
  <defs>
    <linearGradient id="sky" x1="0" y1="0" x2="0" y2="1">
      <stop offset="0" stop-color="#260606"/><stop offset="1" stop-color="#a12f12"/>
    </linearGradient>
    <radialGradient id="sun" cx=".5" cy=".5" r=".5">
      <stop offset="0" stop-color="#ffc39f"/><stop offset=".6" stop-color="#ffc39f" stop-opacity=".55"/><stop offset="1" stop-color="#ffc39f" stop-opacity="0"/>
    </radialGradient>
    <linearGradient id="vig" x1="0" y1="0" x2="0" y2="1">
      <stop offset=".45" stop-color="#000" stop-opacity="0"/><stop offset="1" stop-color="#000" stop-opacity=".72"/>
    </linearGradient>
  </defs>
  <rect width="640" height="360" fill="url(#sky)"/>
  <circle cx="470" cy="205" r="150" fill="url(#sun)"/>
  <circle cx="470" cy="205" r="52" fill="#ffc39f" opacity=".9"/>
  <rect x="0" y="180" width="48" height="165" fill="#0c0c10" opacity="0.92"/><rect x="6" y="204" width="4" height="6" fill="#ffb340" opacity="0.8280000000000001"/><rect x="6" y="260" width="4" height="6" fill="#ffb340" opacity="0.8280000000000001"/><rect x="17" y="190" width="4" height="6" fill="#ffb340" opacity="0.8280000000000001"/><rect x="17" y="204" width="4" height="6" fill="#ffb340" opacity="0.8280000000000001"/><rect x="17" y="218" width="4" height="6" fill="#ffb340" opacity="0.8280000000000001"/><rect x="17" y="232" width="4" height="6" fill="#ffb340" opacity="0.8280000000000001"/><rect x="28" y="232" width="4" height="6" fill="#ffb340" opacity="0.8280000000000001"/><rect x="28" y="260" width="4" height="6" fill="#ffb340" opacity="0.8280000000000001"/><rect x="39" y="204" width="4" height="6" fill="#ffb340" opacity="0.8280000000000001"/><rect x="39" y="218" width="4" height="6" fill="#ffb340" opacity="0.8280000000000001"/><rect x="62" y="214" width="29" height="131" fill="#0c0c10" opacity="0.92"/><rect x="68" y="238" width="4" height="6" fill="#ffb340" opacity="0.8280000000000001"/><rect x="79" y="252" width="4" height="6" fill="#ffb340" opacity="0.8280000000000001"/><rect x="79" y="266" width="4" height="6" fill="#ffb340" opacity="0.8280000000000001"/><rect x="95" y="233" width="32" height="112" fill="#0c0c10" opacity="0.92"/><rect x="101" y="243" width="4" height="6" fill="#ffb340" opacity="0.8280000000000001"/><rect x="140" y="208" width="50" height="137" fill="#0c0c10" opacity="0.92"/><rect x="146" y="232" width="4" height="6" fill="#ffb340" opacity="0.8280000000000001"/><rect x="146" y="260" width="4" height="6" fill="#ffb340" opacity="0.8280000000000001"/><rect x="157" y="246" width="4" height="6" fill="#ffb340" opacity="0.8280000000000001"/><rect x="168" y="246" width="4" height="6" fill="#ffb340" opacity="0.8280000000000001"/><rect x="179" y="218" width="4" height="6" fill="#ffb340" opacity="0.8280000000000001"/><rect x="179" y="246" width="4" height="6" fill="#ffb340" opacity="0.8280000000000001"/><rect x="202" y="135" width="60" height="210" fill="#0c0c10" opacity="0.92"/><rect x="208" y="159" width="4" height="6" fill="#ffb340" opacity="0.8280000000000001"/><rect x="208" y="229" width="4" height="6" fill="#ffb340" opacity="0.8280000000000001"/><rect x="208" y="257" width="4" height="6" fill="#ffb340" opacity="0.8280000000000001"/><rect x="219" y="159" width="4" height="6" fill="#ffb340" opacity="0.8280000000000001"/><rect x="230" y="257" width="4" height="6" fill="#ffb340" opacity="0.8280000000000001"/><rect x="241" y="159" width="4" height="6" fill="#ffb340" opacity="0.8280000000000001"/><rect x="241" y="173" width="4" height="6" fill="#ffb340" opacity="0.8280000000000001"/><rect x="252" y="173" width="4" height="6" fill="#ffb340" opacity="0.8280000000000001"/><rect x="276" y="139" width="29" height="206" fill="#0c0c10" opacity="0.92"/><rect x="282" y="149" width="4" height="6" fill="#ffb340" opacity="0.8280000000000001"/><rect x="282" y="191" width="4" height="6" fill="#ffb340" opacity="0.8280000000000001"/><rect x="282" y="219" width="4" height="6" fill="#ffb340" opacity="0.8280000000000001"/><rect x="293" y="149" width="4" height="6" fill="#ffb340" opacity="0.8280000000000001"/><rect x="293" y="163" width="4" height="6" fill="#ffb340" opacity="0.8280000000000001"/><rect x="311" y="238" width="36" height="107" fill="#0c0c10" opacity="0.92"/><rect x="328" y="262" width="4" height="6" fill="#ffb340" opacity="0.8280000000000001"/><rect x="361" y="221" width="38" height="124" fill="#0c0c10" opacity="0.92"/><rect x="378" y="231" width="4" height="6" fill="#ffb340" opacity="0.8280000000000001"/><rect x="378" y="259" width="4" height="6" fill="#ffb340" opacity="0.8280000000000001"/><rect x="389" y="245" width="4" height="6" fill="#ffb340" opacity="0.8280000000000001"/><rect x="403" y="181" width="58" height="164" fill="#0c0c10" opacity="0.92"/><rect x="409" y="191" width="4" height="6" fill="#ffb340" opacity="0.8280000000000001"/><rect x="409" y="205" width="4" height="6" fill="#ffb340" opacity="0.8280000000000001"/><rect x="409" y="233" width="4" height="6" fill="#ffb340" opacity="0.8280000000000001"/><rect x="409" y="247" width="4" height="6" fill="#ffb340" opacity="0.8280000000000001"/><rect x="420" y="261" width="4" height="6" fill="#ffb340" opacity="0.8280000000000001"/><rect x="431" y="191" width="4" height="6" fill="#ffb340" opacity="0.8280000000000001"/><rect x="431" y="219" width="4" height="6" fill="#ffb340" opacity="0.8280000000000001"/><rect x="442" y="233" width="4" height="6" fill="#ffb340" opacity="0.8280000000000001"/><rect x="475" y="147" width="46" height="198" fill="#0c0c10" opacity="0.92"/><rect x="481" y="199" width="4" height="6" fill="#ffb340" opacity="0.8280000000000001"/><rect x="481" y="241" width="4" height="6" fill="#ffb340" opacity="0.8280000000000001"/><rect x="492" y="157" width="4" height="6" fill="#ffb340" opacity="0.8280000000000001"/><rect x="529" y="163" width="45" height="182" fill="#0c0c10" opacity="0.92"/><rect x="535" y="187" width="4" height="6" fill="#ffb340" opacity="0.8280000000000001"/><rect x="535" y="215" width="4" height="6" fill="#ffb340" opacity="0.8280000000000001"/><rect x="535" y="243" width="4" height="6" fill="#ffb340" opacity="0.8280000000000001"/><rect x="535" y="257" width="4" height="6" fill="#ffb340" opacity="0.8280000000000001"/><rect x="546" y="173" width="4" height="6" fill="#ffb340" opacity="0.8280000000000001"/><rect x="546" y="229" width="4" height="6" fill="#ffb340" opacity="0.8280000000000001"/><rect x="546" y="243" width="4" height="6" fill="#ffb340" opacity="0.8280000000000001"/><rect x="557" y="173" width="4" height="6" fill="#ffb340" opacity="0.8280000000000001"/><rect x="557" y="215" width="4" height="6" fill="#ffb340" opacity="0.8280000000000001"/><rect x="557" y="243" width="4" height="6" fill="#ffb340" opacity="0.8280000000000001"/><rect x="578" y="222" width="64" height="123" fill="#0c0c10" opacity="0.92"/><rect x="595" y="260" width="4" height="6" fill="#ffb340" opacity="0.8280000000000001"/><rect x="617" y="246" width="4" height="6" fill="#ffb340" opacity="0.8280000000000001"/><rect x="628" y="260" width="4" height="6" fill="#ffb340" opacity="0.8280000000000001"/><rect x="648" y="223" width="46" height="122" fill="#0c0c10" opacity="0.92"/>
  <rect x="0" y="115" width="32" height="200" fill="#16161c" opacity="0.55"/><rect x="17" y="195" width="4" height="6" fill="#ffb340" opacity="0.49500000000000005"/><rect x="37" y="175" width="60" height="140" fill="#16161c" opacity="0.55"/><rect x="43" y="227" width="4" height="6" fill="#ffb340" opacity="0.49500000000000005"/><rect x="54" y="227" width="4" height="6" fill="#ffb340" opacity="0.49500000000000005"/><rect x="87" y="185" width="4" height="6" fill="#ffb340" opacity="0.49500000000000005"/><rect x="87" y="213" width="4" height="6" fill="#ffb340" opacity="0.49500000000000005"/><rect x="87" y="227" width="4" height="6" fill="#ffb340" opacity="0.49500000000000005"/><rect x="103" y="208" width="47" height="107" fill="#16161c" opacity="0.55"/><rect x="160" y="200" width="42" height="115" fill="#16161c" opacity="0.55"/><rect x="177" y="210" width="4" height="6" fill="#ffb340" opacity="0.49500000000000005"/><rect x="188" y="210" width="4" height="6" fill="#ffb340" opacity="0.49500000000000005"/><rect x="211" y="110" width="43" height="205" fill="#16161c" opacity="0.55"/><rect x="217" y="120" width="4" height="6" fill="#ffb340" opacity="0.49500000000000005"/><rect x="217" y="148" width="4" height="6" fill="#ffb340" opacity="0.49500000000000005"/><rect x="217" y="176" width="4" height="6" fill="#ffb340" opacity="0.49500000000000005"/><rect x="217" y="190" width="4" height="6" fill="#ffb340" opacity="0.49500000000000005"/><rect x="217" y="218" width="4" height="6" fill="#ffb340" opacity="0.49500000000000005"/><rect x="228" y="120" width="4" height="6" fill="#ffb340" opacity="0.49500000000000005"/><rect x="228" y="204" width="4" height="6" fill="#ffb340" opacity="0.49500000000000005"/><rect x="228" y="232" width="4" height="6" fill="#ffb340" opacity="0.49500000000000005"/><rect x="239" y="190" width="4" height="6" fill="#ffb340" opacity="0.49500000000000005"/><rect x="263" y="154" width="47" height="161" fill="#16161c" opacity="0.55"/><rect x="269" y="192" width="4" height="6" fill="#ffb340" opacity="0.49500000000000005"/><rect x="280" y="206" width="4" height="6" fill="#ffb340" opacity="0.49500000000000005"/><rect x="291" y="220" width="4" height="6" fill="#ffb340" opacity="0.49500000000000005"/><rect x="314" y="129" width="50" height="186" fill="#16161c" opacity="0.55"/><rect x="320" y="153" width="4" height="6" fill="#ffb340" opacity="0.49500000000000005"/><rect x="320" y="167" width="4" height="6" fill="#ffb340" opacity="0.49500000000000005"/><rect x="320" y="181" width="4" height="6" fill="#ffb340" opacity="0.49500000000000005"/><rect x="320" y="195" width="4" height="6" fill="#ffb340" opacity="0.49500000000000005"/><rect x="331" y="167" width="4" height="6" fill="#ffb340" opacity="0.49500000000000005"/><rect x="331" y="209" width="4" height="6" fill="#ffb340" opacity="0.49500000000000005"/><rect x="331" y="223" width="4" height="6" fill="#ffb340" opacity="0.49500000000000005"/><rect x="331" y="237" width="4" height="6" fill="#ffb340" opacity="0.49500000000000005"/><rect x="342" y="167" width="4" height="6" fill="#ffb340" opacity="0.49500000000000005"/><rect x="342" y="195" width="4" height="6" fill="#ffb340" opacity="0.49500000000000005"/><rect x="342" y="209" width="4" height="6" fill="#ffb340" opacity="0.49500000000000005"/><rect x="342" y="237" width="4" height="6" fill="#ffb340" opacity="0.49500000000000005"/><rect x="353" y="237" width="4" height="6" fill="#ffb340" opacity="0.49500000000000005"/><rect x="378" y="135" width="32" height="180" fill="#16161c" opacity="0.55"/><rect x="384" y="145" width="4" height="6" fill="#ffb340" opacity="0.49500000000000005"/><rect x="384" y="173" width="4" height="6" fill="#ffb340" opacity="0.49500000000000005"/><rect x="395" y="215" width="4" height="6" fill="#ffb340" opacity="0.49500000000000005"/><rect x="420" y="202" width="35" height="113" fill="#16161c" opacity="0.55"/><rect x="426" y="240" width="4" height="6" fill="#ffb340" opacity="0.49500000000000005"/><rect x="469" y="138" width="63" height="177" fill="#16161c" opacity="0.55"/><rect x="486" y="148" width="4" height="6" fill="#ffb340" opacity="0.49500000000000005"/><rect x="486" y="162" width="4" height="6" fill="#ffb340" opacity="0.49500000000000005"/><rect x="497" y="190" width="4" height="6" fill="#ffb340" opacity="0.49500000000000005"/><rect x="508" y="148" width="4" height="6" fill="#ffb340" opacity="0.49500000000000005"/><rect x="538" y="147" width="38" height="168" fill="#16161c" opacity="0.55"/><rect x="544" y="157" width="4" height="6" fill="#ffb340" opacity="0.49500000000000005"/><rect x="555" y="185" width="4" height="6" fill="#ffb340" opacity="0.49500000000000005"/><rect x="566" y="171" width="4" height="6" fill="#ffb340" opacity="0.49500000000000005"/><rect x="566" y="185" width="4" height="6" fill="#ffb340" opacity="0.49500000000000005"/><rect x="583" y="187" width="50" height="128" fill="#16161c" opacity="0.55"/><rect x="611" y="225" width="4" height="6" fill="#ffb340" opacity="0.49500000000000005"/><rect x="622" y="211" width="4" height="6" fill="#ffb340" opacity="0.49500000000000005"/><rect x="644" y="141" width="53" height="174" fill="#16161c" opacity="0.55"/><rect x="650" y="221" width="4" height="6" fill="#ffb340" opacity="0.49500000000000005"/><rect x="661" y="179" width="4" height="6" fill="#ffb340" opacity="0.49500000000000005"/><rect x="661" y="221" width="4" height="6" fill="#ffb340" opacity="0.49500000000000005"/><rect x="672" y="235" width="4" height="6" fill="#ffb340" opacity="0.49500000000000005"/><rect x="683" y="151" width="4" height="6" fill="#ffb340" opacity="0.49500000000000005"/><rect x="683" y="179" width="4" height="6" fill="#ffb340" opacity="0.49500000000000005"/>
  <rect y="280" width="640" height="80" fill="#0a0a0d"/>
  <rect width="640" height="360" fill="url(#vig)"/>
  <g transform="rotate(-3 200 200)" font-family="Arial Black, Arial">
    <text x="42" y="200" font-size="62" font-weight="900" fill="#000" opacity=".55" letter-spacing="1" transform="translate(4 5)">ТРЕЙЛЕР</text>
    <text x="42" y="200" font-size="62" font-weight="900" fill="#ffffff" letter-spacing="1">ТРЕЙЛЕР</text>
    <rect x="44" y="216" width="81" height="30" fill="#f4711f"/>
    <text x="57" y="237" font-size="15" font-weight="900" fill="#fff" letter-spacing="2">ВИДЕО</text>
  </g>
</svg>